# MagicaVoxel @ Ephtracy

# group
o 

# material
mtllib haz2.mtl
usemtl palette

# normals
vn -1 0 0
vn 1 0 0
vn 0 0 1
vn 0 0 -1
vn 0 -1 0
vn 0 1 0

# texcoords
vt 0.970703 0.5
vt 0.974609 0.5
vt 0.978516 0.5
vt 0.982422 0.5
vt 0.986328 0.5

# verts
v -1.8 0.3 0.7
v -1.8 0.3 -0.6
v -1.8 0.4 0.6
v -1.8 0.4 -0.5
v -1.8 1.4 0.6
v -1.8 1.4 -0.5
v -1.8 1.5 0.7
v -1.8 1.5 -0.6
v -1.8 2 0.6
v -1.8 2 -0.7
v -1.8 2.1 0.5
v -1.8 2.1 -0.6
v -1.8 3.2 0.5
v -1.8 3.2 -0.6
v -1.8 3.3 0.6
v -1.8 3.3 -0.7
v -1.7 0 1
v -1.7 0 -1
v -1.7 0.3 1.1
v -1.7 0.3 1
v -1.7 0.3 0.7
v -1.7 0.3 -0.6
v -1.7 0.4 0.6
v -1.7 0.4 -0.5
v -1.7 0.5 1.1
v -1.7 0.5 1
v -1.7 1.4 0.6
v -1.7 1.4 -0.5
v -1.7 1.5 0.7
v -1.7 1.5 -0.6
v -1.7 2 0.6
v -1.7 2 -0.7
v -1.7 2.1 0.5
v -1.7 2.1 -0.6
v -1.7 3.2 0.5
v -1.7 3.2 -0.6
v -1.7 3.3 0.6
v -1.7 3.3 -0.7
v -1.7 3.6 1
v -1.7 3.6 -1
v -1.5 0.8 1.1
v -1.5 0.8 1
v -1.5 1.4 1.1
v -1.5 1.4 1
v -1.5 1.7 1.1
v -1.5 1.7 1
v -1.5 2.3 1.1
v -1.5 2.3 1
v -1.5 2.6 1.1
v -1.5 2.6 1
v -1.5 3.2 1.1
v -1.5 3.2 1
v -1 0.9 1.1
v -1 0.9 1
v -1 1.3 1.1
v -1 1.3 1
v -1 1.8 1.1
v -1 1.8 1
v -1 2.2 1.1
v -1 2.2 1
v -1 2.7 1.1
v -1 2.7 1
v -1 3.1 1.1
v -1 3.1 1
v -0.7 0.5 1.1
v -0.7 0.5 1
v -0.7 1.4 1.1
v -0.7 1.4 1
v -0.3 0.8 1
v -0.3 0.8 0.9
v -0.3 0.9 1
v -0.3 0.9 0.9
v -0.2 0.5 1
v -0.2 0.5 0.9
v -0.2 0.8 1
v -0.2 0.8 0.9
v -0.2 0.9 1
v -0.2 0.9 0.9
v -0.2 1.2 1
v -0.2 1.2 0.9
v 0.2 0.5 1
v 0.2 0.5 0.9
v 0.2 1.2 1
v 0.2 1.2 0.9
v 0.3 0.5 1.1
v 0.3 0.5 1
v 0.3 1.3 1.1
v 0.3 1.3 1
v 0.6 0.8 1.1
v 0.6 0.8 1
v 0.6 1.4 1.1
v 0.6 1.4 1
v 0.6 1.7 1.1
v 0.6 1.7 1
v 0.6 2.3 1.1
v 0.6 2.3 1
v 0.6 2.6 1.1
v 0.6 2.6 1
v 0.6 3.2 1.1
v 0.6 3.2 1
v 1.1 0.9 1.1
v 1.1 0.9 1
v 1.1 1.3 1.1
v 1.1 1.3 1
v 1.1 1.8 1.1
v 1.1 1.8 1
v 1.1 2.2 1.1
v 1.1 2.2 1
v 1.1 2.7 1.1
v 1.1 2.7 1
v 1.1 3.1 1.1
v 1.1 3.1 1
v -1.4 0.9 1.1
v -1.4 0.9 1
v -1.4 1.3 1.1
v -1.4 1.3 1
v -1.4 1.8 1.1
v -1.4 1.8 1
v -1.4 2.2 1.1
v -1.4 2.2 1
v -1.4 2.7 1.1
v -1.4 2.7 1
v -1.4 3.1 1.1
v -1.4 3.1 1
v -0.9 0.8 1.1
v -0.9 0.8 1
v -0.9 1.4 1.1
v -0.9 1.4 1
v -0.9 1.7 1.1
v -0.9 1.7 1
v -0.9 2.3 1.1
v -0.9 2.3 1
v -0.9 2.6 1.1
v -0.9 2.6 1
v -0.9 3.2 1.1
v -0.9 3.2 1
v -0.6 0.5 1.1
v -0.6 0.5 1
v -0.6 1.3 1.1
v -0.6 1.3 1
v -0.5 0.5 1
v -0.5 0.5 0.9
v -0.5 1.2 1
v -0.5 1.2 0.9
v -0.0999999 0.5 1
v -0.0999999 0.5 0.9
v -0.0999999 0.8 1
v -0.0999999 0.8 0.9
v -0.0999999 0.9 1
v -0.0999999 0.9 0.9
v -0.0999999 1.2 1
v -0.0999999 1.2 0.9
v 0 0.8 1
v 0 0.8 0.9
v 0 0.9 1
v 0 0.9 0.9
v 0.4 0.5 1.1
v 0.4 0.5 1
v 0.4 1.4 1.1
v 0.4 1.4 1
v 0.7 0.9 1.1
v 0.7 0.9 1
v 0.7 1.3 1.1
v 0.7 1.3 1
v 0.7 1.8 1.1
v 0.7 1.8 1
v 0.7 2.2 1.1
v 0.7 2.2 1
v 0.7 2.7 1.1
v 0.7 2.7 1
v 0.7 3.1 1.1
v 0.7 3.1 1
v 1.2 0.8 1.1
v 1.2 0.8 1
v 1.2 1.4 1.1
v 1.2 1.4 1
v 1.2 1.7 1.1
v 1.2 1.7 1
v 1.2 2.3 1.1
v 1.2 2.3 1
v 1.2 2.6 1.1
v 1.2 2.6 1
v 1.2 3.2 1.1
v 1.2 3.2 1
v 1.6 0 1
v 1.6 0 -1
v 1.6 0.3 1.1
v 1.6 0.3 1
v 1.6 0.5 1.1
v 1.6 0.5 1
v 1.6 0.5 0.6
v 1.6 0.5 -0.5
v 1.6 0.6 0.5
v 1.6 0.6 -0.4
v 1.6 1.6 0.5
v 1.6 1.6 -0.4
v 1.6 1.7 0.6
v 1.6 1.7 -0.5
v 1.6 2.1 0.6
v 1.6 2.1 -0.6
v 1.6 2.2 0.5
v 1.6 2.2 -0.5
v 1.6 3.1 0.5
v 1.6 3.1 -0.5
v 1.6 3.2 0.6
v 1.6 3.2 -0.6
v 1.6 3.6 1
v 1.6 3.6 -1
v 1.7 0.5 0.6
v 1.7 0.5 -0.5
v 1.7 0.6 0.5
v 1.7 0.6 -0.4
v 1.7 1.6 0.5
v 1.7 1.6 -0.4
v 1.7 1.7 0.6
v 1.7 1.7 -0.5
v 1.7 2.1 0.6
v 1.7 2.1 -0.6
v 1.7 2.2 0.5
v 1.7 2.2 -0.5
v 1.7 3.1 0.5
v 1.7 3.1 -0.5
v 1.7 3.2 0.6
v 1.7 3.2 -0.6
v -1.7 0.3 1.1
v -1.7 0.5 1.1
v -1.5 0.8 1.1
v -1.5 1.4 1.1
v -1.5 1.7 1.1
v -1.5 2.3 1.1
v -1.5 2.6 1.1
v -1.5 3.2 1.1
v -1.4 0.9 1.1
v -1.4 1.3 1.1
v -1.4 1.8 1.1
v -1.4 2.2 1.1
v -1.4 2.7 1.1
v -1.4 3.1 1.1
v -1 0.9 1.1
v -1 1.3 1.1
v -1 1.8 1.1
v -1 2.2 1.1
v -1 2.7 1.1
v -1 3.1 1.1
v -0.9 0.8 1.1
v -0.9 1.4 1.1
v -0.9 1.7 1.1
v -0.9 2.3 1.1
v -0.9 2.6 1.1
v -0.9 3.2 1.1
v -0.7 0.5 1.1
v -0.7 1.4 1.1
v -0.6 0.5 1.1
v -0.6 1.3 1.1
v 0.3 0.5 1.1
v 0.3 1.3 1.1
v 0.4 0.5 1.1
v 0.4 1.4 1.1
v 0.6 0.8 1.1
v 0.6 1.4 1.1
v 0.6 1.7 1.1
v 0.6 2.3 1.1
v 0.6 2.6 1.1
v 0.6 3.2 1.1
v 0.7 0.9 1.1
v 0.7 1.3 1.1
v 0.7 1.8 1.1
v 0.7 2.2 1.1
v 0.7 2.7 1.1
v 0.7 3.1 1.1
v 1.1 0.9 1.1
v 1.1 1.3 1.1
v 1.1 1.8 1.1
v 1.1 2.2 1.1
v 1.1 2.7 1.1
v 1.1 3.1 1.1
v 1.2 0.8 1.1
v 1.2 1.4 1.1
v 1.2 1.7 1.1
v 1.2 2.3 1.1
v 1.2 2.6 1.1
v 1.2 3.2 1.1
v 1.6 0.3 1.1
v 1.6 0.5 1.1
v -1.7 0 1
v -1.7 0.3 1
v -1.7 0.5 1
v -1.7 3.6 1
v -1.5 0.8 1
v -1.5 1.4 1
v -1.5 1.7 1
v -1.5 2.3 1
v -1.5 2.6 1
v -1.5 3.2 1
v -1.4 0.9 1
v -1.4 1.3 1
v -1.4 1.8 1
v -1.4 2.2 1
v -1.4 2.7 1
v -1.4 3.1 1
v -1 0.9 1
v -1 1.3 1
v -1 1.8 1
v -1 2.2 1
v -1 2.7 1
v -1 3.1 1
v -0.9 0.8 1
v -0.9 1.4 1
v -0.9 1.7 1
v -0.9 2.3 1
v -0.9 2.6 1
v -0.9 3.2 1
v -0.7 0.5 1
v -0.7 1.4 1
v -0.6 0.5 1
v -0.6 1.3 1
v -0.5 0.5 1
v -0.5 1.2 1
v -0.3 0.8 1
v -0.3 0.9 1
v -0.2 0.5 1
v -0.2 0.8 1
v -0.2 0.9 1
v -0.2 1.2 1
v -0.0999999 0.5 1
v -0.0999999 0.8 1
v -0.0999999 0.9 1
v -0.0999999 1.2 1
v 0 0.8 1
v 0 0.9 1
v 0.2 0.5 1
v 0.2 1.2 1
v 0.3 0.5 1
v 0.3 1.3 1
v 0.4 0.5 1
v 0.4 1.4 1
v 0.6 0.8 1
v 0.6 1.4 1
v 0.6 1.7 1
v 0.6 2.3 1
v 0.6 2.6 1
v 0.6 3.2 1
v 0.7 0.9 1
v 0.7 1.3 1
v 0.7 1.8 1
v 0.7 2.2 1
v 0.7 2.7 1
v 0.7 3.1 1
v 1.1 0.9 1
v 1.1 1.3 1
v 1.1 1.8 1
v 1.1 2.2 1
v 1.1 2.7 1
v 1.1 3.1 1
v 1.2 0.8 1
v 1.2 1.4 1
v 1.2 1.7 1
v 1.2 2.3 1
v 1.2 2.6 1
v 1.2 3.2 1
v 1.6 0 1
v 1.6 0.3 1
v 1.6 0.5 1
v 1.6 3.6 1
v -0.5 0.5 0.9
v -0.5 1.2 0.9
v -0.3 0.8 0.9
v -0.3 0.9 0.9
v -0.2 0.5 0.9
v -0.2 0.8 0.9
v -0.2 0.9 0.9
v -0.2 1.2 0.9
v -0.0999999 0.5 0.9
v -0.0999999 0.8 0.9
v -0.0999999 0.9 0.9
v -0.0999999 1.2 0.9
v 0 0.8 0.9
v 0 0.9 0.9
v 0.2 0.5 0.9
v 0.2 1.2 0.9
v -1.8 0.3 0.7
v -1.8 1.5 0.7
v -1.7 0.3 0.7
v -1.7 1.5 0.7
v -1.8 2 0.6
v -1.8 3.3 0.6
v -1.7 2 0.6
v -1.7 3.3 0.6
v 1.6 0.5 0.6
v 1.6 1.7 0.6
v 1.6 2.1 0.6
v 1.6 3.2 0.6
v 1.7 0.5 0.6
v 1.7 1.7 0.6
v 1.7 2.1 0.6
v 1.7 3.2 0.6
v 1.6 0.6 -0.4
v 1.6 1.6 -0.4
v 1.7 0.6 -0.4
v 1.7 1.6 -0.4
v -1.8 0.4 -0.5
v -1.8 1.4 -0.5
v -1.7 0.4 -0.5
v -1.7 1.4 -0.5
v 1.6 2.2 -0.5
v 1.6 3.1 -0.5
v 1.7 2.2 -0.5
v 1.7 3.1 -0.5
v -1.8 2.1 -0.6
v -1.8 3.2 -0.6
v -1.7 2.1 -0.6
v -1.7 3.2 -0.6
v -1.8 0.4 0.6
v -1.8 1.4 0.6
v -1.7 0.4 0.6
v -1.7 1.4 0.6
v -1.8 2.1 0.5
v -1.8 3.2 0.5
v -1.7 2.1 0.5
v -1.7 3.2 0.5
v 1.6 0.6 0.5
v 1.6 1.6 0.5
v 1.6 2.2 0.5
v 1.6 3.1 0.5
v 1.7 0.6 0.5
v 1.7 1.6 0.5
v 1.7 2.2 0.5
v 1.7 3.1 0.5
v 1.6 0.5 -0.5
v 1.6 1.7 -0.5
v 1.7 0.5 -0.5
v 1.7 1.7 -0.5
v -1.8 0.3 -0.6
v -1.8 1.5 -0.6
v -1.7 0.3 -0.6
v -1.7 1.5 -0.6
v 1.6 2.1 -0.6
v 1.6 3.2 -0.6
v 1.7 2.1 -0.6
v 1.7 3.2 -0.6
v -1.8 2 -0.7
v -1.8 3.3 -0.7
v -1.7 2 -0.7
v -1.7 3.3 -0.7
v -1.7 0 -1
v -1.7 3.6 -1
v 1.6 0 -1
v 1.6 3.6 -1
v -1.7 0 1
v 1.6 0 1
v -1.6 0 0.9
v 1.5 0 0.9
v -1.6 0 -0.9
v 1.5 0 -0.9
v -1.7 0 -1
v 1.6 0 -1
v -1.7 0.3 1.1
v 1.6 0.3 1.1
v -1.7 0.3 1
v 1.6 0.3 1
v -1.8 0.3 0.7
v -1.7 0.3 0.7
v -1.8 0.3 -0.6
v -1.7 0.3 -0.6
v 1.6 0.5 0.6
v 1.7 0.5 0.6
v 1.6 0.5 -0.5
v 1.7 0.5 -0.5
v -1.5 0.8 1.1
v -0.9 0.8 1.1
v 0.6 0.8 1.1
v 1.2 0.8 1.1
v -1.5 0.8 1
v -0.9 0.8 1
v -0.3 0.8 1
v -0.2 0.8 1
v -0.0999999 0.8 1
v 0 0.8 1
v 0.6 0.8 1
v 1.2 0.8 1
v -0.3 0.8 0.9
v -0.2 0.8 0.9
v -0.0999999 0.8 0.9
v 0 0.8 0.9
v -0.5 1.2 1
v -0.2 1.2 1
v -0.0999999 1.2 1
v 0.2 1.2 1
v -0.5 1.2 0.9
v -0.2 1.2 0.9
v -0.0999999 1.2 0.9
v 0.2 1.2 0.9
v -1.4 1.3 1.1
v -1 1.3 1.1
v -0.6 1.3 1.1
v 0.3 1.3 1.1
v 0.7 1.3 1.1
v 1.1 1.3 1.1
v -1.4 1.3 1
v -1 1.3 1
v -0.6 1.3 1
v 0.3 1.3 1
v 0.7 1.3 1
v 1.1 1.3 1
v -1.8 1.4 0.6
v -1.7 1.4 0.6
v -1.8 1.4 -0.5
v -1.7 1.4 -0.5
v 1.6 1.6 0.5
v 1.7 1.6 0.5
v 1.6 1.6 -0.4
v 1.7 1.6 -0.4
v -1.5 1.7 1.1
v -0.9 1.7 1.1
v 0.6 1.7 1.1
v 1.2 1.7 1.1
v -1.5 1.7 1
v -0.9 1.7 1
v 0.6 1.7 1
v 1.2 1.7 1
v -1.8 2 0.6
v -1.7 2 0.6
v -1.8 2 -0.7
v -1.7 2 -0.7
v 1.6 2.1 0.6
v 1.7 2.1 0.6
v 1.6 2.1 -0.6
v 1.7 2.1 -0.6
v -1.4 2.2 1.1
v -1 2.2 1.1
v 0.7 2.2 1.1
v 1.1 2.2 1.1
v -1.4 2.2 1
v -1 2.2 1
v 0.7 2.2 1
v 1.1 2.2 1
v -1.5 2.6 1.1
v -0.9 2.6 1.1
v 0.6 2.6 1.1
v 1.2 2.6 1.1
v -1.5 2.6 1
v -0.9 2.6 1
v 0.6 2.6 1
v 1.2 2.6 1
v -1.4 3.1 1.1
v -1 3.1 1.1
v 0.7 3.1 1.1
v 1.1 3.1 1.1
v -1.4 3.1 1
v -1 3.1 1
v 0.7 3.1 1
v 1.1 3.1 1
v 1.6 3.1 0.5
v 1.7 3.1 0.5
v 1.6 3.1 -0.5
v 1.7 3.1 -0.5
v -1.8 3.2 0.5
v -1.7 3.2 0.5
v -1.8 3.2 -0.6
v -1.7 3.2 -0.6
v -1.8 0.4 0.6
v -1.7 0.4 0.6
v -1.8 0.4 -0.5
v -1.7 0.4 -0.5
v -1.7 0.5 1.1
v -0.7 0.5 1.1
v -0.6 0.5 1.1
v 0.3 0.5 1.1
v 0.4 0.5 1.1
v 1.6 0.5 1.1
v -1.7 0.5 1
v -0.7 0.5 1
v -0.6 0.5 1
v -0.5 0.5 1
v -0.2 0.5 1
v -0.0999999 0.5 1
v 0.2 0.5 1
v 0.3 0.5 1
v 0.4 0.5 1
v 1.6 0.5 1
v -0.5 0.5 0.9
v -0.2 0.5 0.9
v -0.0999999 0.5 0.9
v 0.2 0.5 0.9
v 1.6 0.6 0.5
v 1.7 0.6 0.5
v 1.6 0.6 -0.4
v 1.7 0.6 -0.4
v -1.4 0.9 1.1
v -1 0.9 1.1
v 0.7 0.9 1.1
v 1.1 0.9 1.1
v -1.4 0.9 1
v -1 0.9 1
v -0.3 0.9 1
v -0.2 0.9 1
v -0.0999999 0.9 1
v 0 0.9 1
v 0.7 0.9 1
v 1.1 0.9 1
v -0.3 0.9 0.9
v -0.2 0.9 0.9
v -0.0999999 0.9 0.9
v 0 0.9 0.9
v -1.5 1.4 1.1
v -0.9 1.4 1.1
v -0.7 1.4 1.1
v 0.4 1.4 1.1
v 0.6 1.4 1.1
v 1.2 1.4 1.1
v -1.5 1.4 1
v -0.9 1.4 1
v -0.7 1.4 1
v 0.4 1.4 1
v 0.6 1.4 1
v 1.2 1.4 1
v -1.8 1.5 0.7
v -1.7 1.5 0.7
v -1.8 1.5 -0.6
v -1.7 1.5 -0.6
v 1.6 1.7 0.6
v 1.7 1.7 0.6
v 1.6 1.7 -0.5
v 1.7 1.7 -0.5
v -1.4 1.8 1.1
v -1 1.8 1.1
v 0.7 1.8 1.1
v 1.1 1.8 1.1
v -1.4 1.8 1
v -1 1.8 1
v 0.7 1.8 1
v 1.1 1.8 1
v -1.8 2.1 0.5
v -1.7 2.1 0.5
v -1.8 2.1 -0.6
v -1.7 2.1 -0.6
v 1.6 2.2 0.5
v 1.7 2.2 0.5
v 1.6 2.2 -0.5
v 1.7 2.2 -0.5
v -1.5 2.3 1.1
v -0.9 2.3 1.1
v 0.6 2.3 1.1
v 1.2 2.3 1.1
v -1.5 2.3 1
v -0.9 2.3 1
v 0.6 2.3 1
v 1.2 2.3 1
v -1.4 2.7 1.1
v -1 2.7 1.1
v 0.7 2.7 1.1
v 1.1 2.7 1.1
v -1.4 2.7 1
v -1 2.7 1
v 0.7 2.7 1
v 1.1 2.7 1
v -1.5 3.2 1.1
v -0.9 3.2 1.1
v 0.6 3.2 1.1
v 1.2 3.2 1.1
v -1.5 3.2 1
v -0.9 3.2 1
v 0.6 3.2 1
v 1.2 3.2 1
v 1.6 3.2 0.6
v 1.7 3.2 0.6
v 1.6 3.2 -0.6
v 1.7 3.2 -0.6
v -1.8 3.3 0.6
v -1.7 3.3 0.6
v -1.8 3.3 -0.7
v -1.7 3.3 -0.7
v -1.7 3.6 1
v 1.6 3.6 1
v -1.7 3.6 -1
v 1.6 3.6 -1

# faces
f 3/2/1 2/2/1 1/2/1
f 4/2/1 2/2/1 3/2/1
f 5/2/1 3/2/1 1/2/1
f 6/2/1 2/2/1 4/2/1
f 7/2/1 5/2/1 1/2/1
f 7/2/1 6/2/1 5/2/1
f 8/2/1 2/2/1 6/2/1
f 8/2/1 6/2/1 7/2/1
f 11/2/1 10/2/1 9/2/1
f 12/2/1 10/2/1 11/2/1
f 13/2/1 11/2/1 9/2/1
f 14/2/1 10/2/1 12/2/1
f 15/2/1 13/2/1 9/2/1
f 15/2/1 14/2/1 13/2/1
f 16/2/1 10/2/1 14/2/1
f 16/2/1 14/2/1 15/2/1
f 20/5/1 18/5/1 17/5/1
f 21/5/1 18/5/1 20/5/1
f 22/5/1 18/5/1 21/5/1
f 25/2/1 20/2/1 19/2/1
f 26/5/1 21/5/1 20/5/1
f 26/2/1 20/2/1 25/2/1
f 27/4/1 24/4/1 23/4/1
f 28/4/1 24/4/1 27/4/1
f 29/5/1 21/5/1 26/5/1
f 30/5/1 18/5/1 22/5/1
f 31/5/1 30/5/1 29/5/1
f 32/5/1 18/5/1 30/5/1
f 32/5/1 30/5/1 31/5/1
f 35/4/1 34/4/1 33/4/1
f 36/4/1 34/4/1 35/4/1
f 37/5/1 31/5/1 29/5/1
f 38/5/1 18/5/1 32/5/1
f 39/5/1 29/5/1 26/5/1
f 39/5/1 38/5/1 37/5/1
f 39/5/1 37/5/1 29/5/1
f 40/5/1 18/5/1 38/5/1
f 40/5/1 38/5/1 39/5/1
f 43/2/1 42/2/1 41/2/1
f 44/2/1 42/2/1 43/2/1
f 47/2/1 46/2/1 45/2/1
f 48/2/1 46/2/1 47/2/1
f 51/2/1 50/2/1 49/2/1
f 52/2/1 50/2/1 51/2/1
f 55/2/1 54/2/1 53/2/1
f 56/2/1 54/2/1 55/2/1
f 59/2/1 58/2/1 57/2/1
f 60/2/1 58/2/1 59/2/1
f 63/2/1 62/2/1 61/2/1
f 64/2/1 62/2/1 63/2/1
f 67/2/1 66/2/1 65/2/1
f 68/2/1 66/2/1 67/2/1
f 71/2/1 70/2/1 69/2/1
f 72/2/1 70/2/1 71/2/1
f 75/2/1 74/2/1 73/2/1
f 76/2/1 74/2/1 75/2/1
f 79/2/1 78/2/1 77/2/1
f 80/2/1 78/2/1 79/2/1
f 83/2/1 82/2/1 81/2/1
f 84/2/1 82/2/1 83/2/1
f 87/2/1 86/2/1 85/2/1
f 88/2/1 86/2/1 87/2/1
f 91/2/1 90/2/1 89/2/1
f 92/2/1 90/2/1 91/2/1
f 95/2/1 94/2/1 93/2/1
f 96/2/1 94/2/1 95/2/1
f 99/2/1 98/2/1 97/2/1
f 100/2/1 98/2/1 99/2/1
f 103/2/1 102/2/1 101/2/1
f 104/2/1 102/2/1 103/2/1
f 107/2/1 106/2/1 105/2/1
f 108/2/1 106/2/1 107/2/1
f 111/2/1 110/2/1 109/2/1
f 112/2/1 110/2/1 111/2/1
f 113/2/2 114/2/2 115/2/2
f 115/2/2 114/2/2 116/2/2
f 117/2/2 118/2/2 119/2/2
f 119/2/2 118/2/2 120/2/2
f 121/2/2 122/2/2 123/2/2
f 123/2/2 122/2/2 124/2/2
f 125/2/2 126/2/2 127/2/2
f 127/2/2 126/2/2 128/2/2
f 129/2/2 130/2/2 131/2/2
f 131/2/2 130/2/2 132/2/2
f 133/2/2 134/2/2 135/2/2
f 135/2/2 134/2/2 136/2/2
f 137/2/2 138/2/2 139/2/2
f 139/2/2 138/2/2 140/2/2
f 141/2/2 142/2/2 143/2/2
f 143/2/2 142/2/2 144/2/2
f 145/2/2 146/2/2 147/2/2
f 147/2/2 146/2/2 148/2/2
f 149/2/2 150/2/2 151/2/2
f 151/2/2 150/2/2 152/2/2
f 153/2/2 154/2/2 155/2/2
f 155/2/2 154/2/2 156/2/2
f 157/2/2 158/2/2 159/2/2
f 159/2/2 158/2/2 160/2/2
f 161/2/2 162/2/2 163/2/2
f 163/2/2 162/2/2 164/2/2
f 165/2/2 166/2/2 167/2/2
f 167/2/2 166/2/2 168/2/2
f 169/2/2 170/2/2 171/2/2
f 171/2/2 170/2/2 172/2/2
f 173/2/2 174/2/2 175/2/2
f 175/2/2 174/2/2 176/2/2
f 177/2/2 178/2/2 179/2/2
f 179/2/2 178/2/2 180/2/2
f 181/2/2 182/2/2 183/2/2
f 183/2/2 182/2/2 184/2/2
f 185/5/2 186/5/2 188/5/2
f 187/2/2 188/2/2 189/2/2
f 188/5/2 186/5/2 190/5/2
f 189/2/2 188/2/2 190/2/2
f 190/5/2 186/5/2 191/5/2
f 191/5/2 186/5/2 192/5/2
f 193/4/2 194/4/2 195/4/2
f 195/4/2 194/4/2 196/4/2
f 190/5/2 191/5/2 197/5/2
f 192/5/2 186/5/2 198/5/2
f 190/5/2 197/5/2 199/5/2
f 197/5/2 198/5/2 199/5/2
f 198/5/2 186/5/2 200/5/2
f 199/5/2 198/5/2 200/5/2
f 201/4/2 202/4/2 203/4/2
f 203/4/2 202/4/2 204/4/2
f 190/5/2 199/5/2 205/5/2
f 200/5/2 186/5/2 206/5/2
f 190/5/2 205/5/2 207/5/2
f 205/5/2 206/5/2 207/5/2
f 206/5/2 186/5/2 208/5/2
f 207/5/2 206/5/2 208/5/2
f 209/2/2 210/2/2 211/2/2
f 211/2/2 210/2/2 212/2/2
f 209/2/2 211/2/2 213/2/2
f 212/2/2 210/2/2 214/2/2
f 209/2/2 213/2/2 215/2/2
f 213/2/2 214/2/2 215/2/2
f 214/2/2 210/2/2 216/2/2
f 215/2/2 214/2/2 216/2/2
f 217/2/2 218/2/2 219/2/2
f 219/2/2 218/2/2 220/2/2
f 217/2/2 219/2/2 221/2/2
f 220/2/2 218/2/2 222/2/2
f 217/2/2 221/2/2 223/2/2
f 221/2/2 222/2/2 223/2/2
f 222/2/2 218/2/2 224/2/2
f 223/2/2 222/2/2 224/2/2
f 233/2/3 228/2/3 227/2/3
f 234/2/3 228/2/3 233/2/3
f 235/2/3 230/2/3 229/2/3
f 236/2/3 230/2/3 235/2/3
f 237/2/3 232/2/3 231/2/3
f 238/2/3 232/2/3 237/2/3
f 239/2/3 233/2/3 227/2/3
f 240/2/3 228/2/3 234/2/3
f 241/2/3 235/2/3 229/2/3
f 242/2/3 230/2/3 236/2/3
f 243/2/3 237/2/3 231/2/3
f 244/2/3 232/2/3 238/2/3
f 245/2/3 239/2/3 227/2/3
f 245/2/3 240/2/3 239/2/3
f 246/2/3 228/2/3 240/2/3
f 246/2/3 240/2/3 245/2/3
f 247/2/3 241/2/3 229/2/3
f 247/2/3 242/2/3 241/2/3
f 248/2/3 230/2/3 242/2/3
f 248/2/3 242/2/3 247/2/3
f 249/2/3 244/2/3 243/2/3
f 249/2/3 243/2/3 231/2/3
f 250/2/3 232/2/3 244/2/3
f 250/2/3 244/2/3 249/2/3
f 251/2/3 226/2/3 225/2/3
f 253/2/3 251/2/3 225/2/3
f 253/2/3 252/2/3 251/2/3
f 254/2/3 252/2/3 253/2/3
f 255/2/3 253/2/3 225/2/3
f 256/2/3 252/2/3 254/2/3
f 257/2/3 255/2/3 225/2/3
f 257/2/3 256/2/3 255/2/3
f 258/2/3 252/2/3 256/2/3
f 258/2/3 256/2/3 257/2/3
f 265/2/3 260/2/3 259/2/3
f 266/2/3 260/2/3 265/2/3
f 267/2/3 262/2/3 261/2/3
f 268/2/3 262/2/3 267/2/3
f 269/2/3 264/2/3 263/2/3
f 270/2/3 264/2/3 269/2/3
f 271/2/3 265/2/3 259/2/3
f 272/2/3 260/2/3 266/2/3
f 273/2/3 267/2/3 261/2/3
f 274/2/3 262/2/3 268/2/3
f 275/2/3 269/2/3 263/2/3
f 276/2/3 264/2/3 270/2/3
f 277/2/3 271/2/3 259/2/3
f 277/2/3 272/2/3 271/2/3
f 278/2/3 260/2/3 272/2/3
f 278/2/3 272/2/3 277/2/3
f 279/2/3 273/2/3 261/2/3
f 279/2/3 274/2/3 273/2/3
f 280/2/3 262/2/3 274/2/3
f 280/2/3 274/2/3 279/2/3
f 281/2/3 276/2/3 275/2/3
f 281/2/3 275/2/3 263/2/3
f 282/2/3 264/2/3 276/2/3
f 282/2/3 276/2/3 281/2/3
f 283/2/3 257/2/3 225/2/3
f 284/2/3 257/2/3 283/2/3
f 289/5/3 288/5/3 287/5/3
f 290/5/3 288/5/3 289/5/3
f 291/5/3 288/5/3 290/5/3
f 292/5/3 288/5/3 291/5/3
f 293/5/3 288/5/3 292/5/3
f 294/5/3 288/5/3 293/5/3
f 301/4/3 296/4/3 295/4/3
f 302/4/3 296/4/3 301/4/3
f 303/4/3 298/4/3 297/4/3
f 304/4/3 298/4/3 303/4/3
f 305/4/3 300/4/3 299/4/3
f 306/4/3 300/4/3 305/4/3
f 307/5/3 289/5/3 287/5/3
f 308/5/3 291/5/3 290/5/3
f 309/5/3 291/5/3 308/5/3
f 310/5/3 293/5/3 292/5/3
f 311/5/3 293/5/3 310/5/3
f 312/5/3 288/5/3 294/5/3
f 313/5/3 311/5/3 310/5/3
f 313/5/3 312/5/3 311/5/3
f 313/5/3 310/5/3 309/5/3
f 313/5/3 307/5/3 287/5/3
f 313/5/3 309/5/3 308/5/3
f 313/5/3 308/5/3 307/5/3
f 314/5/3 312/5/3 313/5/3
f 317/2/3 316/2/3 315/2/3
f 318/2/3 316/2/3 317/2/3
f 322/2/3 320/2/3 319/2/3
f 323/2/3 320/2/3 322/2/3
f 324/2/3 316/2/3 318/2/3
f 325/2/3 323/2/3 322/2/3
f 325/2/3 324/2/3 323/2/3
f 325/2/3 322/2/3 321/2/3
f 326/2/3 324/2/3 325/2/3
f 327/2/3 324/2/3 326/2/3
f 328/2/3 316/2/3 324/2/3
f 328/2/3 324/2/3 327/2/3
f 329/2/3 327/2/3 326/2/3
f 330/2/3 327/2/3 329/2/3
f 332/2/3 316/2/3 328/2/3
f 333/2/3 332/2/3 331/2/3
f 334/2/3 316/2/3 332/2/3
f 334/2/3 332/2/3 333/2/3
f 336/5/3 312/5/3 314/5/3
f 337/5/3 336/5/3 335/5/3
f 338/5/3 312/5/3 336/5/3
f 338/5/3 336/5/3 337/5/3
f 339/5/3 312/5/3 338/5/3
f 340/5/3 312/5/3 339/5/3
f 341/5/3 312/5/3 340/5/3
f 342/5/3 288/5/3 312/5/3
f 342/5/3 312/5/3 341/5/3
f 349/4/3 344/4/3 343/4/3
f 350/4/3 344/4/3 349/4/3
f 351/4/3 346/4/3 345/4/3
f 352/4/3 346/4/3 351/4/3
f 353/4/3 348/4/3 347/4/3
f 354/4/3 348/4/3 353/4/3
f 355/5/3 337/5/3 335/5/3
f 356/5/3 339/5/3 338/5/3
f 357/5/3 339/5/3 356/5/3
f 358/5/3 341/5/3 340/5/3
f 359/5/3 341/5/3 358/5/3
f 360/5/3 288/5/3 342/5/3
f 361/5/3 286/5/3 285/5/3
f 362/5/3 286/5/3 361/5/3
f 363/5/3 360/5/3 359/5/3
f 363/5/3 357/5/3 356/5/3
f 363/5/3 359/5/3 358/5/3
f 363/5/3 358/5/3 357/5/3
f 363/5/3 355/5/3 335/5/3
f 363/5/3 356/5/3 355/5/3
f 364/5/3 288/5/3 360/5/3
f 364/5/3 360/5/3 363/5/3
f 367/3/3 366/3/3 365/3/3
f 368/3/3 366/3/3 367/3/3
f 369/3/3 367/3/3 365/3/3
f 370/3/3 367/3/3 369/3/3
f 371/3/3 366/3/3 368/3/3
f 372/3/3 366/3/3 371/3/3
f 377/3/3 374/3/3 373/3/3
f 378/3/3 376/3/3 375/3/3
f 379/3/3 377/3/3 373/3/3
f 379/3/3 378/3/3 377/3/3
f 380/3/3 376/3/3 378/3/3
f 380/3/3 378/3/3 379/3/3
f 383/2/3 382/2/3 381/2/3
f 384/2/3 382/2/3 383/2/3
f 387/2/3 386/2/3 385/2/3
f 388/2/3 386/2/3 387/2/3
f 393/2/3 390/2/3 389/2/3
f 394/2/3 390/2/3 393/2/3
f 395/2/3 392/2/3 391/2/3
f 396/2/3 392/2/3 395/2/3
f 399/2/3 398/2/3 397/2/3
f 400/2/3 398/2/3 399/2/3
f 403/2/3 402/2/3 401/2/3
f 404/2/3 402/2/3 403/2/3
f 407/2/3 406/2/3 405/2/3
f 408/2/3 406/2/3 407/2/3
f 411/2/3 410/2/3 409/2/3
f 412/2/3 410/2/3 411/2/3
f 413/2/4 414/2/4 415/2/4
f 415/2/4 414/2/4 416/2/4
f 417/2/4 418/2/4 419/2/4
f 419/2/4 418/2/4 420/2/4
f 421/2/4 422/2/4 425/2/4
f 425/2/4 422/2/4 426/2/4
f 423/2/4 424/2/4 427/2/4
f 427/2/4 424/2/4 428/2/4
f 429/2/4 430/2/4 431/2/4
f 431/2/4 430/2/4 432/2/4
f 433/2/4 434/2/4 435/2/4
f 435/2/4 434/2/4 436/2/4
f 437/2/4 438/2/4 439/2/4
f 439/2/4 438/2/4 440/2/4
f 441/2/4 442/2/4 443/2/4
f 443/2/4 442/2/4 444/2/4
f 445/5/4 446/5/4 447/5/4
f 447/5/4 446/5/4 448/5/4
f 451/5/5 450/5/5 449/5/5
f 452/5/5 450/5/5 451/5/5
f 453/5/5 451/5/5 449/5/5
f 453/1/5 452/1/5 451/1/5
f 454/5/5 450/5/5 452/5/5
f 454/1/5 452/1/5 453/1/5
f 455/5/5 453/5/5 449/5/5
f 455/5/5 454/5/5 453/5/5
f 456/5/5 450/5/5 454/5/5
f 456/5/5 454/5/5 455/5/5
f 459/2/5 458/2/5 457/2/5
f 460/2/5 458/2/5 459/2/5
f 463/2/5 462/2/5 461/2/5
f 464/2/5 462/2/5 463/2/5
f 467/2/5 466/2/5 465/2/5
f 468/2/5 466/2/5 467/2/5
f 473/2/5 470/2/5 469/2/5
f 474/2/5 470/2/5 473/2/5
f 479/2/5 472/2/5 471/2/5
f 480/2/5 472/2/5 479/2/5
f 481/2/5 476/2/5 475/2/5
f 482/2/5 476/2/5 481/2/5
f 483/2/5 478/2/5 477/2/5
f 484/2/5 478/2/5 483/2/5
f 489/2/5 486/2/5 485/2/5
f 490/2/5 486/2/5 489/2/5
f 491/2/5 488/2/5 487/2/5
f 492/2/5 488/2/5 491/2/5
f 499/2/5 494/2/5 493/2/5
f 500/2/5 494/2/5 499/2/5
f 501/2/5 496/2/5 495/2/5
f 502/2/5 496/2/5 501/2/5
f 503/2/5 498/2/5 497/2/5
f 504/2/5 498/2/5 503/2/5
f 507/2/5 506/2/5 505/2/5
f 508/2/5 506/2/5 507/2/5
f 511/2/5 510/2/5 509/2/5
f 512/2/5 510/2/5 511/2/5
f 517/2/5 514/2/5 513/2/5
f 518/2/5 514/2/5 517/2/5
f 519/2/5 516/2/5 515/2/5
f 520/2/5 516/2/5 519/2/5
f 523/2/5 522/2/5 521/2/5
f 524/2/5 522/2/5 523/2/5
f 527/2/5 526/2/5 525/2/5
f 528/2/5 526/2/5 527/2/5
f 533/2/5 530/2/5 529/2/5
f 534/2/5 530/2/5 533/2/5
f 535/2/5 532/2/5 531/2/5
f 536/2/5 532/2/5 535/2/5
f 541/2/5 538/2/5 537/2/5
f 542/2/5 538/2/5 541/2/5
f 543/2/5 540/2/5 539/2/5
f 544/2/5 540/2/5 543/2/5
f 549/2/5 546/2/5 545/2/5
f 550/2/5 546/2/5 549/2/5
f 551/2/5 548/2/5 547/2/5
f 552/2/5 548/2/5 551/2/5
f 555/2/5 554/2/5 553/2/5
f 556/2/5 554/2/5 555/2/5
f 559/2/5 558/2/5 557/2/5
f 560/2/5 558/2/5 559/2/5
f 561/2/6 562/2/6 563/2/6
f 563/2/6 562/2/6 564/2/6
f 565/2/6 566/2/6 571/2/6
f 571/2/6 566/2/6 572/2/6
f 567/2/6 568/2/6 573/2/6
f 573/2/6 568/2/6 574/2/6
f 574/2/6 568/2/6 575/2/6
f 575/2/6 568/2/6 576/2/6
f 576/2/6 568/2/6 577/2/6
f 577/2/6 568/2/6 578/2/6
f 569/2/6 570/2/6 579/2/6
f 579/2/6 570/2/6 580/2/6
f 574/2/6 575/2/6 581/2/6
f 581/2/6 575/2/6 582/2/6
f 576/2/6 577/2/6 583/2/6
f 583/2/6 577/2/6 584/2/6
f 585/2/6 586/2/6 587/2/6
f 587/2/6 586/2/6 588/2/6
f 589/2/6 590/2/6 593/2/6
f 593/2/6 590/2/6 594/2/6
f 591/2/6 592/2/6 599/2/6
f 599/2/6 592/2/6 600/2/6
f 595/2/6 596/2/6 601/2/6
f 601/2/6 596/2/6 602/2/6
f 597/2/6 598/2/6 603/2/6
f 603/2/6 598/2/6 604/2/6
f 605/2/6 606/2/6 611/2/6
f 611/2/6 606/2/6 612/2/6
f 607/2/6 608/2/6 613/2/6
f 613/2/6 608/2/6 614/2/6
f 609/2/6 610/2/6 615/2/6
f 615/2/6 610/2/6 616/2/6
f 617/2/6 618/2/6 619/2/6
f 619/2/6 618/2/6 620/2/6
f 621/2/6 622/2/6 623/2/6
f 623/2/6 622/2/6 624/2/6
f 625/2/6 626/2/6 629/2/6
f 629/2/6 626/2/6 630/2/6
f 627/2/6 628/2/6 631/2/6
f 631/2/6 628/2/6 632/2/6
f 633/2/6 634/2/6 635/2/6
f 635/2/6 634/2/6 636/2/6
f 637/2/6 638/2/6 639/2/6
f 639/2/6 638/2/6 640/2/6
f 641/2/6 642/2/6 645/2/6
f 645/2/6 642/2/6 646/2/6
f 643/2/6 644/2/6 647/2/6
f 647/2/6 644/2/6 648/2/6
f 649/2/6 650/2/6 653/2/6
f 653/2/6 650/2/6 654/2/6
f 651/2/6 652/2/6 655/2/6
f 655/2/6 652/2/6 656/2/6
f 657/2/6 658/2/6 661/2/6
f 661/2/6 658/2/6 662/2/6
f 659/2/6 660/2/6 663/2/6
f 663/2/6 660/2/6 664/2/6
f 665/2/6 666/2/6 667/2/6
f 667/2/6 666/2/6 668/2/6
f 669/2/6 670/2/6 671/2/6
f 671/2/6 670/2/6 672/2/6
f 673/5/6 674/5/6 675/5/6
f 675/5/6 674/5/6 676/5/6
